<svg width="370" height="243.67257999999998" tabindex="0" xmlns="http://www.w3.org/2000/svg" xmlns:xlink="http://www.w3.org/1999/xlink"><g transform="translate(40,0)"><g transform="translate(55.66371000000001,0) scale(0.5910069729729729)"><g style="stroke-width: 10; stroke-linecap: round; stroke: rgb(0, 0, 255); opacity: 0.5;"><path d="M 435.42005723808626 324.5520083039218 l 0.0001 0" vector-effect="non-scaling-stroke" style="opacity: 0.5;"/><path d="M 345.7426043082311 343.1643098554012 l 0.0001 0" vector-effect="non-scaling-stroke" style="opacity: 0.5;"/><path d="M 227.30068534427136 355.00850175179727 l 0.0001 0" vector-effect="non-scaling-stroke" style="opacity: 0.4432;"/><path d="M 146.0833694832704 355.00850175179727 l 0.0001 0" vector-effect="non-scaling-stroke" style="opacity: 0.5;"/><path d="M 64.86605362226943 348.2403920967138 l 0.0001 0" vector-effect="non-scaling-stroke" style="opacity: 0.5;"/><path d="M 20.8733408642272 336.3962002003178 l 0.0001 0" vector-effect="non-scaling-stroke" style="opacity: 0.3344;"/><path d="M -36.65559120398181 304.24767933867156 l 0.0001 0" vector-effect="non-scaling-stroke" style="opacity: 0.5;"/><path d="M -68.80411206562799 268.71510364948364 l 0.0001 0" vector-effect="non-scaling-stroke" style="opacity: 0.5;"/><path d="M -85.72438620333655 223.03036347767062 l 0.0001 0" vector-effect="non-scaling-stroke" style="opacity: 0.2896;"/><path d="M -87.41641361710738 189.18981520225356 l 0.0001 0" vector-effect="non-scaling-stroke" style="opacity: 0.5;"/><path d="M -65.42005723808629 145.19710244421137 l 0.0001 0" vector-effect="non-scaling-stroke" style="opacity: 0.5;"/><path d="M -38.34761861775263 124.89277347896113 l 0.0001 0" vector-effect="non-scaling-stroke" style="opacity: 0.5;"/><path d="M 12.413203795372942 109.66452675502346 l 0.0001 0" vector-effect="non-scaling-stroke" style="opacity: 0.3256;"/><path d="M 63.174026208498546 104.58844451371088 l 0.0001 0" vector-effect="non-scaling-stroke" style="opacity: 0.5;"/><path d="M 103.78268413899904 104.58844451371088 l 0.0001 0" vector-effect="non-scaling-stroke" style="opacity: 0.5;"/><path d="M 152.8514791383538 128.27682830650284 l 0.0001 0" vector-effect="non-scaling-stroke" style="opacity: 0.4376;"/><path d="M 183.30797258622917 153.65723951306563 l 0.0001 0" vector-effect="non-scaling-stroke" style="opacity: 0.5;"/><path d="M 193.46013706885427 170.5775136507742 l 0.0001 0" vector-effect="non-scaling-stroke" style="opacity: 0.5;"/><path d="M 196.84419189639598 185.80576037471184 l 0.0001 0" vector-effect="non-scaling-stroke" style="opacity: 0.3664;"/><path d="M 195.15216448262512 212.87819899504552 l 0.0001 0" vector-effect="non-scaling-stroke" style="opacity: 0.5;"/><path d="M 184.99999999999997 228.10644571898317 l 0.0001 0" vector-effect="non-scaling-stroke" style="opacity: 0.5;"/><path d="M 161.31161620720803 245.02671985669176 l 0.0001 0" vector-effect="non-scaling-stroke" style="opacity: 0.4296;"/><path d="M 139.31525982818698 250.1028020980043 l 0.0001 0" vector-effect="non-scaling-stroke" style="opacity: 0.468;"/><path d="M 107.16673896654075 251.7948295117751 l 0.0001 0" vector-effect="non-scaling-stroke" style="opacity: 0.5;"/><path d="M 83.47835517374884 246.71874727046256 l 0.0001 0" vector-effect="non-scaling-stroke" style="opacity: 0.5;"/><path d="M 59.78997138095684 219.6463086501289 l 0.0001 0" vector-effect="non-scaling-stroke" style="opacity: 0.4544;"/><path d="M 56.405916553415146 195.95792485733696 l 0.0001 0" vector-effect="non-scaling-stroke" style="opacity: 0.5;"/><path d="M 71.6341632773528 155.3492669268365 l 0.0001 0" vector-effect="non-scaling-stroke" style="opacity: 0.3712;"/><path d="M 97.01457448391565 128.27682830650284 l 0.0001 0" vector-effect="non-scaling-stroke" style="opacity: 0.5;"/><path d="M 154.54350655212465 85.97614296223149 l 0.0001 0" vector-effect="non-scaling-stroke" style="opacity: 0.5;"/><path d="M 196.84419189639598 62.287759169439525 l 0.0001 0" vector-effect="non-scaling-stroke" style="opacity: 0.3408;"/><path d="M 257.7571787921467 40.29140279041845 l 0.0001 0" vector-effect="non-scaling-stroke" style="opacity: 0.5;"/><path d="M 462.49249585841994 38.599375376647586 l 0.0001 0" vector-effect="non-scaling-stroke" style="opacity: 0.5;"/></g></g></g></svg>